<svg width="100%" height="100%" viewBox="0 0 80 80" version="1.1" xmlns="http://www.w3.org/2000/svg" xmlns:xlink="http://www.w3.org/1999/xlink">
    
    
    <g stroke="none" stroke-width="1" fill="none" fill-rule="evenodd">
        
        <g transform="translate(19, 19)" fill="var(--tchmi-icons-color, #ef0000)">
            <path d="M21.2007,-2.48689958e-14 C32.8907,-2.48689958e-14 42.4017,9.511 42.4017,21.201 C42.4017,32.891 32.8907,42.401 21.2007,42.401 C9.5107,42.401 -0.0003,32.891 -0.0003,21.201 C-0.0003,9.511 9.5107,-2.48689958e-14 21.2007,-2.48689958e-14 Z M21.2007,2 C10.6137,2 1.9997,10.613 1.9997,21.201 C1.9997,31.788 10.6137,40.401 21.2007,40.401 C31.7877,40.401 40.4017,31.788 40.4017,21.201 C40.4017,10.613 31.7877,2 21.2007,2 Z M21.1812,26.1043 C22.6152,26.1043 23.7442,27.2653 23.7442,28.7033 C23.7442,30.0713 22.5832,31.2603 21.1812,31.2603 C19.7172,31.2603 18.5892,30.0713 18.5892,28.7033 C18.5892,27.2353 19.7172,26.1043 21.1812,26.1043 Z M22.7682,9.2083 C23.0122,9.2083 23.3762,9.2653 23.3762,9.6613 L23.3757469,9.7508 L23.3741022,9.78620741 C23.3711653,9.83002222 23.3641167,9.90196667 23.3472,10.2053 L22.6782,22.0703 C22.6152,22.6503 22.4932,22.4853 22.0342,22.4853 L20.2962,22.4853 C19.8402,22.4853 19.7172,22.6503 19.6572,22.0703 L18.9842,10.2333 C18.9604727,9.80866364 18.9561587,9.78768843 18.9553743,9.69551112 L18.9552,9.6183 C18.9552,9.25284545 19.2056132,9.21301074 19.435215,9.20878835 L22.7682,9.2083 Z"></path>
        </g>
    </g>
</svg>