<svg width="100%" height="100%" viewBox="0 0 80 80" version="1.1" xmlns="http://www.w3.org/2000/svg" xmlns:xlink="http://www.w3.org/1999/xlink">
    
    
    <g stroke="none" stroke-width="1" fill="var(--tchmi-icons-color-normal, #4c6374" fill-rule="evenodd">
        
        <g transform="translate(17.0001, 18)" fill="var(--tchmi-icons-color-normal, #4c6374">
            <path d="M33.6284298,0.253429806 C34.0986033,0.360567387 34.570867,0.500174483 35.0421129,0.670456364 L33.444,2.267 L33.1844298,2.20342981 C31.2829753,1.77006617 29.6831137,2.03738229 28.650116,2.95406345 L28.5064298,3.08942981 L28.371,2.954 L28.5204298,3.10442981 L27.3634298,4.26142981 C27.0734298,5.23242981 27.0584298,6.38642981 27.3494298,7.66142981 C27.4475902,8.09327196 27.5777457,8.52755183 27.7377596,8.96135602 L26.934598,9.65921919 C26.6968493,9.06793732 26.5088024,8.47381988 26.3744298,7.88342981 C26.1794298,7.03142981 26.1134298,6.22442981 26.1534298,5.46942981 L3.08942981,28.5074298 C2.06442981,29.5314298 1.74942981,31.1924298 2.20342981,33.1844298 C2.69442981,35.3414298 4.01042981,37.5744298 5.90942981,39.4734298 C9.64542981,43.2104298 14.6684298,44.5014298 16.8764298,42.2934298 L39.9744298,19.1954298 C39.8234298,19.2044298 39.6814298,19.2314298 39.5274298,19.2314298 C38.0530562,19.2314298 36.4243746,18.8167863 34.8061659,18.0252752 L35.4838719,17.2522065 C37.5387719,18.216005 39.5669476,18.503643 41.1524298,18.0164298 L42.2954298,16.8744298 C43.5556098,15.6119638 43.673586,13.4310313 42.8461074,11.0966015 L44.4067199,9.53442777 C45.8897517,12.9111964 45.7432533,16.2526215 43.7074298,18.2904298 L18.2904298,43.7074298 C17.1494298,44.8484298 15.5984298,45.3964298 13.8614298,45.3964298 C10.9124298,45.3964298 7.42642981,43.8194298 4.49542981,40.8874298 C2.33342981,38.7264298 0.826429806,36.1484298 0.253429806,33.6284298 C-0.358570194,30.9424298 0.146429806,28.6214298 1.67542981,27.0924298 L27.1064298,1.69042981 L27.0924298,1.67542981 C28.6214298,0.146429806 30.9414298,-0.358570194 33.6284298,0.253429806 Z M38.8469298,0.822952293 C39.7379298,0.822952293 40.7149298,1.18595229 41.5869298,1.81895229 L42.9999298,3.23495229 C44.1949298,4.87595229 44.3469298,6.78895229 43.2609298,7.87595229 L22.2944298,29.1236298 C23.4154298,31.4376298 23.3914298,33.5636298 22.1714298,34.7846298 L16.8344298,40.1216298 C16.1994298,40.7556298 15.3254298,41.0586298 14.3214298,41.0586298 C12.3304298,41.0586298 9.82942981,39.8676298 7.67242981,37.7106298 C4.42742981,34.4666298 3.36842981,30.4416298 5.26142981,28.5486298 L10.5984298,23.2116298 C11.7564298,22.0536298 13.6974298,21.9616298 15.8774298,22.9106298 L36.9459298,1.55995229 C37.4289298,1.07795229 38.0859298,0.822952293 38.8469298,0.822952293 Z M9.78342981,26.8546298 L6.67542981,29.9626298 C5.74942981,30.8886298 6.58442981,33.7946298 9.08642981,36.2966298 C11.5884298,38.7986298 14.4934298,39.6326298 15.4204298,38.7066298 L18.5334298,35.5936298 C16.7734298,35.2476298 14.7774298,34.1416298 13.0094298,32.3736298 C11.2434298,30.6076298 10.1314298,28.6136298 9.78342981,26.8546298 Z M12.0134298,24.6256298 C11.0874298,25.5516298 11.9214298,28.4566298 14.4234298,30.9596298 C16.9254298,33.4616298 19.8314298,34.2956298 20.7574298,33.3696298 C21.2544298,32.8726298 21.2404298,31.8326298 20.7724298,30.6126298 C20.2974298,31.0066298 19.7014298,31.2096298 19.0444298,31.2096298 C17.9094298,31.2086298 16.6124298,30.6396298 15.5384298,29.5656298 C13.9044298,27.9316298 13.4564298,25.7936298 14.3844298,24.4816298 C13.3344298,24.1566298 12.4464298,24.1916298 12.0134298,24.6256298 Z M37.120498,4.25002361 L16.0434298,25.5736298 C15.7114298,25.9056298 15.9044298,27.1026298 16.9524298,28.1506298 C18.0004298,29.1986298 19.1974298,29.3926298 19.5304298,29.0606298 L40.606498,7.73702361 C39.864498,7.46302361 39.128498,6.99002361 38.497498,6.35902361 C37.847498,5.70902361 37.386498,4.97802361 37.120498,4.25002361 Z M38.7799152,2.45667285 C38.1941288,3.04245929 38.5107113,4.30878924 39.487022,5.28509997 C40.4633327,6.2614107 41.7296627,6.57799319 42.3154491,5.99220675 C42.9012356,5.40642032 42.5846531,4.14009036 41.6083423,3.16377963 C40.6320316,2.1874689 39.3657016,1.87088641 38.7799152,2.45667285 Z"></path>
        </g>
    </g>
</svg>