<?xml version="1.0" encoding="UTF-8"?>
<svg width="80px" height="80px" viewBox="0 0 80 80" version="1.1" xmlns="http://www.w3.org/2000/svg" xmlns:xlink="http://www.w3.org/1999/xlink">
    <title>icons/stations/tray feeder</title>
    <g stroke="none" stroke-width="1" fill="none" fill-rule="evenodd">
        <path d="M43,22 C43.5522847,22 44,22.4477153 44,23 L44,30.6292607 L42,30.6292607 L41.9999091,24 L21.0909091,24 L21.0909091,43 L41.9999091,43 L42,36.7274014 L44,36.7274014 L44,44 C44,44.5522847 43.5522847,45 43,45 L20.0909091,45 C19.5386243,45 19.0909091,44.5522847 19.0909091,44 L19.0909091,23 C19.0909091,22.4477153 19.5386243,22 20.0909091,22 L43,22 Z M53.7355895,23.3405366 L63.3117213,32.9166684 C63.705023,33.3099701 63.7018137,33.948622 63.3046149,34.3379884 L53.7284473,43.7235084 C53.334018,44.1100882 52.700885,44.1037249 52.3142687,43.709332 C51.9277254,43.3148662 51.9340887,42.6817332 52.328518,42.2951534 L60.1746395,34.6053356 L49.5476395,34.6046184 C48.9953547,34.6046184 48.5476395,34.1569031 48.5476395,33.6046184 C48.5476395,33.0523336 48.9953547,32.6046184 49.5476395,32.6046184 L60.1706395,32.6053356 L52.3213759,24.7547501 C51.9587462,24.3921204 51.9328441,23.820275 52.2436695,23.4277574 L52.3213759,23.3405366 C52.7119002,22.9500123 53.3450652,22.9500123 53.7355895,23.3405366 Z M45.5476395,32.6046184 C46.0999242,32.6046184 46.5476395,33.0523336 46.5476395,33.6046184 C46.5476395,34.1569031 46.0999242,34.6046184 45.5476395,34.6046184 L43.5476395,34.6046184 C42.9953547,34.6046184 42.5476395,34.1569031 42.5476395,33.6046184 C42.5476395,33.0523336 42.9953547,32.6046184 43.5476395,32.6046184 L45.5476395,32.6046184 Z M39.5476395,32.6046184 C40.0999242,32.6046184 40.5476395,33.0523336 40.5476395,33.6046184 C40.5476395,34.1569031 40.0999242,34.6046184 39.5476395,34.6046184 L37.5476395,34.6046184 C36.9953547,34.6046184 36.5476395,34.1569031 36.5476395,33.6046184 C36.5476395,33.0523336 36.9953547,32.6046184 37.5476395,32.6046184 L39.5476395,32.6046184 Z M60,47 C60.5522847,47 61,47.4477153 61,48 L61,56 C61,56.5522847 60.5522847,57 60,57 L52,57 C51.4477153,57 51,56.5522847 51,56 L51,49 L45,49 L45,56 C45,56.5128358 44.6139598,56.9355072 44.1166211,56.9932723 L44,57 L36,57 C35.4477153,57 35,56.5522847 35,56 L35,49 L29,49 L29,56 C29,56.5128358 28.6139598,56.9355072 28.1166211,56.9932723 L28,57 L20,57 C19.4477153,57 19,56.5522847 19,56 L19,48 C19,47.4477153 19.4477153,47 20,47 L60,47 Z M27,49 L21,49 L21,55 L27,55 L27,49 Z M43,49 L37,49 L37,55 L43,55 L43,49 Z M59,49 L53,49 L53,55 L59,55 L59,49 Z" id="Combined-Shape" fill="#4C6374" fill-rule="nonzero"></path>
    </g>
</svg>