<?xml version="1.0" encoding="utf-8"?>
<!-- Generator: Adobe Illustrator 16.0.4, SVG Export Plug-In . SVG Version: 6.00 Build 0)  -->
<!DOCTYPE svg PUBLIC "-//W3C//DTD SVG 1.0//EN" "http://www.w3.org/TR/2001/REC-SVG-20010904/DTD/svg10.dtd">
<svg version="1.0" xmlns="http://www.w3.org/2000/svg" xmlns:xlink="http://www.w3.org/1999/xlink" x="0px" y="0px" width="80px"
	 height="80px" viewBox="0 0 80 80" enable-background="new 0 0 80 80" xml:space="preserve">
<g id="pfade">
	<g>
		<g>
			<path fill="none" stroke="#4C6374" stroke-width="2" stroke-linecap="round" stroke-linejoin="round" stroke-miterlimit="10" d="
				M42.51,52.398l10.269,10.269c0,0,3.161,3.016,6.287-0.109c3.125-3.125,0.036-6.214,0.036-6.214L48.745,45.986"/>
			<path fill="none" stroke="#4C6374" stroke-width="2" stroke-linecap="round" stroke-linejoin="round" stroke-miterlimit="10" d="
				M37.167,34.408l-2.376-2.376l-2.004-2.004c1.229-3.568,0.454-7.832-2.466-10.751l-3.27-3.271l-4.143,4.143l3.27,3.271
				c1.723,1.723,1.701,4.536-0.021,6.258s-4.507,1.751-6.229,0.029l-3.307-3.271l-4.179,4.18l3.271,3.271
				c2.877,2.877,7.091,3.64,10.699,2.414l1.729,1.729l2.781,2.781"/>
			
				<line fill="none" stroke="#4C6374" stroke-linecap="round" stroke-linejoin="round" stroke-miterlimit="10" x1="51.144" y1="61.031" x2="57.467" y2="54.708"/>
		</g>
		<g>
			<path fill="none" stroke="#4C6374" stroke-width="2" stroke-linecap="round" stroke-linejoin="round" stroke-miterlimit="10" d="
				M46.849,42.354L26.571,62.632c0,0-3.089,3.089-6.214-0.036c-3.125-3.125-0.109-6.287-0.109-6.287l20.278-20.278L46.849,42.354z"
				/>
			
				<line fill="none" stroke="#4C6374" stroke-linecap="round" stroke-linejoin="round" stroke-miterlimit="10" x1="21.883" y1="54.673" x2="28.206" y2="60.997"/>
			
				<line fill="none" stroke="#4C6374" stroke-linecap="round" stroke-linejoin="round" stroke-miterlimit="10" x1="35.729" y1="40.828" x2="42.052" y2="47.151"/>
			
				<line fill="none" stroke="#4C6374" stroke-width="2" stroke-linecap="round" stroke-linejoin="round" stroke-miterlimit="10" x1="43.687" y1="39.192" x2="56.7" y2="26.179"/>
			
				<rect x="57.786" y="18.001" transform="matrix(0.7071 0.7071 -0.7071 0.7071 33.5834 -36.1323)" fill="none" stroke="#4C6374" stroke-width="2" stroke-linecap="round" stroke-linejoin="round" stroke-miterlimit="10" width="5.242" height="8.942"/>
		</g>
	</g>
</g>
</svg>
