<?xml version="1.0" encoding="UTF-8"?>
<svg width="80px" height="80px" viewBox="0 0 80 80" version="1.1" xmlns="http://www.w3.org/2000/svg" xmlns:xlink="http://www.w3.org/1999/xlink">
    <title>icons/industry/packaging/main</title>
    <g stroke="none" stroke-width="1" fill="none" fill-rule="evenodd">
        <g transform="translate(19, 19)" fill="#FFFFFF">
            <path d="M49.5384134,23.8618877 C49.3845898,23.9772554 49.2944588,24.159921 49.2968622,24.3522005 C49.3004675,24.54448 49.3954055,24.7235403 49.5528343,24.834101 L51.563357,26.2485572 L39.5182472,29.0293997 L2.40349393,29.0438206 L2.40349393,21.0954662 L10.3386291,21.2132374 L39.5843433,21.2048252 C39.6300097,21.2048252 39.6744743,21.2000182 39.7189389,21.1892025 L51.4179456,18.4876753 L49.597299,20.6964862 C49.4699138,20.8503098 49.4278527,21.0570103 49.4843348,21.2480881 C49.5408169,21.4403676 49.6886318,21.590586 49.8785078,21.6518751 L51.7135754,22.2359241 L49.5384134,23.8618877 Z M37.0450519,30.5147589 L37.0450519,38.597709 L24.6237953,38.4102365 L24.6177866,30.4847153 C24.6177866,30.395786 24.5961551,30.3128654 24.5601027,30.2371554 L37.101534,30.2323484 C37.0787009,30.3248829 37.0450519,30.4138122 37.0450519,30.5147589 L37.0450519,30.5147589 Z M15.5926669,38.2744391 L15.5914651,30.4883205 C15.5914651,30.3993912 15.5698337,30.3164707 15.534983,30.2407606 L23.4725217,30.2371554 C23.4376711,30.3140672 23.4160396,30.3969877 23.4160396,30.485917 L23.4220483,38.3922103 L15.5926669,38.2744391 Z M2.40349393,30.2455676 L14.4449985,30.2407606 C14.4113496,30.3164707 14.3897182,30.3993912 14.3897182,30.4883205 L14.3909199,38.2564129 L2.40349393,38.0761508 L2.40349393,30.2455676 Z M8.66579736,2.40349393 L16.8472907,2.40349393 L14.7634615,8.48553532 L3.72541559,8.48553532 L8.66579736,2.40349393 Z M35.7219285,8.48553532 L24.2945166,8.48553532 L22.5615975,2.40349393 L30.7815468,2.40349393 L35.7219285,8.48553532 Z M24.6153831,20.0066835 L24.6129796,10.8890292 L37.0450519,10.8890292 L37.0450519,19.8528599 C37.0450519,19.9057367 37.0678851,19.9514031 37.0750956,20.00428 L24.6153831,20.0066835 Z M15.5890616,20.0102887 L15.5866581,10.8890292 L23.4112326,10.8890292 L23.4136361,20.0078852 L15.5890616,20.0102887 Z M21.3117807,2.40349393 L23.0446998,8.48553532 L16.033708,8.48553532 L18.1175372,2.40349393 L21.3117807,2.40349393 Z M2.40349393,10.8890292 L14.3849112,10.8890292 L14.3873147,20.0102887 L10.3482431,20.0114905 L2.40349393,19.8937193 L2.40349393,10.8890292 Z M53.6003181,21.9186629 C53.563064,21.6963397 53.4056351,21.5148759 53.1905224,21.4463763 L51.088667,20.7758015 L53.4705295,17.8868018 C53.6351688,17.6885136 53.653195,17.4073048 53.5185993,17.1885868 C53.3828019,16.9698689 53.1232246,16.8605099 52.8720595,16.9193955 L39.5158437,20.0030782 L39.4173004,20.0030782 C39.4245109,19.9514031 39.4485459,19.9057367 39.4485459,19.8528599 L39.4485459,10.3854973 C39.4485459,10.2833488 39.4136952,10.192016 39.3896603,10.0958763 C39.4365284,9.96728933 39.4725808,9.83269367 39.4725808,9.68728228 C39.4725808,9.3243547 39.310345,8.99868127 39.0555746,8.77755983 L32.2873357,0.44344463 C32.0590038,0.163437587 31.7165059,0 31.3535783,0 L8.09376581,0 C7.73083822,0 7.38834034,0.163437587 7.16000842,0.44344463 L0.267989573,8.9301817 C0.198288249,9.01670748 0.144209636,9.11044374 0.100946745,9.21018874 C0.0985432511,9.21379398 0.0949380102,9.21739922 0.0937362633,9.22220621 C0.0384559029,9.35439837 0.0156227105,9.49500277 0.00961397572,9.63680891 C0.00841222875,9.65483512 0,9.66925608 0,9.68728228 L0,39.2598716 C0,39.9160254 0.526365171,40.4508028 1.18251901,40.4616186 L38.2287727,41.0192292 C38.2347814,41.0192292 38.2407902,41.0192292 38.2467989,41.0192292 C38.5616566,41.0192292 38.8644968,40.8954492 39.0892235,40.6743278 C39.3187572,40.4483993 39.4485459,40.1395504 39.4485459,39.8174822 L39.4485459,30.5147589 C39.4485459,30.4138122 39.4136952,30.3248829 39.390862,30.2311466 L39.5867468,30.2311466 C39.6324132,30.2311466 39.6780795,30.2263397 39.7213424,30.2155239 L53.144856,27.1174203 C53.3755914,27.0645434 53.55345,26.8794744 53.5991164,26.6475372 C53.6447828,26.4143983 53.548643,26.1764524 53.3551617,26.040655 L50.9216241,24.3281656 L53.368381,22.5003084 C53.548643,22.3657128 53.6375723,22.1409861 53.6003181,21.9186629 L53.6003181,21.9186629 Z" id="Fill-1"></path>
        </g>
    </g>
</svg>