<svg width="100%" height="100%" viewBox="0 0 80 80" version="1.1" xmlns="http://www.w3.org/2000/svg" xmlns:xlink="http://www.w3.org/1999/xlink">
    
    
    <g stroke="none" stroke-width="1" fill="none" fill-rule="evenodd">
        
        
        <path d="M36.9099827,30.9188972 C39.002198,30.9188972 40.1842946,32.1009938 40.0087439,34.0176583 L40.0082346,38.253578 C40.4806649,38.0474323 41.0228258,37.9411553 41.627068,37.9411553 C43.4522989,37.9411553 44.5912323,38.9362954 44.7600944,40.6900988 C45.2023353,40.5081102 45.7100984,40.4145811 46.2752771,40.4145811 C48.0496532,40.4145811 49.258116,41.3364435 49.6880359,43.0013031 L49.7166451,43 C51.9257841,43 53.7166451,44.790861 53.7166451,47 L53.7166451,58.5414581 C53.7166451,60.7505971 51.9257841,62.5414581 49.7166451,62.5414581 L38,62.5414581 C35.5807335,62.5414581 33.5325858,60.9296066 32.0648371,58.4909234 L24.750214,47.2764906 C24.6518622,47.1257024 24.5960406,46.9511599 24.5886403,46.7712838 C24.5075371,44.7999317 25.5645624,43.5964475 27.4618594,43.5964475 C28.5438839,43.5964475 29.2745429,43.992406 30.8407728,45.4044906 L31.4695947,45.9828645 L32.8479566,47.281318 L33.3919807,47.7690245 L33.5441613,47.8994516 L33.5449015,33.9353939 C33.6193178,32.0047557 34.8694069,30.9188972 36.9099827,30.9188972 Z M36.9099827,32.9188972 C35.9017414,32.9188972 35.5746149,33.2030474 35.5441594,33.9739102 L35.5441594,49.8038599 C35.5441594,50.5443661 34.7673437,51.0280079 34.1028476,50.7012137 C33.3747096,50.343121 32.6410444,49.7908824 31.7330121,48.9713112 L31.3717222,48.6401606 L30.3753509,47.6995401 C28.6796881,46.1065864 27.9763917,45.5964475 27.4618594,45.5964475 C26.8215221,45.5964475 26.5990853,45.7703929 26.5837087,46.426638 L33.7590898,57.4287482 C34.9216545,59.3593726 36.4237071,60.5414581 38,60.5414581 L49.7166451,60.5414581 C50.8212146,60.5414581 51.7166451,59.6460276 51.7166451,58.5414581 L51.7166451,47 C51.7166451,45.8954305 50.8212146,45 49.7166451,45 L49.77,45.002 L49.7709051,48.3611382 C49.7709051,48.873974 49.384865,49.2966454 48.8875263,49.3544105 L48.7709051,49.3611382 C48.2186204,49.3611382 47.7709051,48.9134229 47.7709051,48.3611382 L47.7709051,43.580341 L47.7327898,43.4287527 C47.5278893,42.700528 47.1039989,42.4145811 46.2752771,42.4145811 C45.3606177,42.4145811 44.9391042,42.7629078 44.7608778,43.6697438 L44.779,43.583 L44.779649,48.3611382 C44.779649,48.873974 44.3936089,49.2966454 43.8962702,49.3544105 L43.779649,49.3611382 C43.2273643,49.3611382 42.779649,48.9134229 42.779649,48.3611382 L42.7801046,41.0336528 C42.7549886,40.2018797 42.4828526,39.9411553 41.627068,39.9411553 C40.6932301,39.9411553 40.2169343,40.3163084 39.9774962,41.2515012 L40.008,41.141 L40.0087439,48.3611382 C40.0087439,48.873974 39.6227037,49.2966454 39.125365,49.3544105 L39.0087439,49.3611382 C38.4564591,49.3611382 38.0087439,48.9134229 38.0087439,48.3611382 L38.0087439,40.9432261 L38.0127257,33.9285087 C38.0836622,33.1359747 37.8665847,32.9188972 36.9099827,32.9188972 Z M55,20 C58.3137085,20 61,22.6862915 61,26 L61,48 C61,50.879921 58.9565091,53.3377596 56.1633642,53.8871027 C55.7825706,53.9619955 55.3934401,54 55,54 L55,52 C55.2637004,52 55.5235753,51.9746192 55.7774071,51.9246967 C57.6370832,51.5589441 59,49.919676 59,48 L59,26 C59,23.790861 57.209139,22 55,22 L25,22 C22.790861,22 21,23.790861 21,26 L21,48 C21,50.209139 22.790861,52 25,52 L26.1561744,52 L27.4618594,54 L25,54 C21.6862915,54 19,51.3137085 19,48 L19,26 C19,22.6862915 21.6862915,20 25,20 Z M37,26 C40.8659932,26 44,29.1340068 44,33 L42,33 C42,30.2385763 39.7614237,28 37,28 C34.2385763,28 32,30.2385763 32,33 L30,33 C30,29.1340068 33.1340068,26 37,26 Z" fill="var(--tchmi-icons-color, #ffffff)"></path>
    </g>
</svg>