<svg id="pfade" xmlns="http://www.w3.org/2000/svg" viewBox="0 0 80 80">
  <defs>
    <style>
      .cls-1, .cls-2 {
        fill: none;
        stroke: #4C6374;
        stroke-linecap: round;
        stroke-linejoin: round;
      }

      .cls-1 {
        stroke-width: 2px;
      }
    </style>
  </defs>
  <rect class="cls-1" x="54.0832" y="40" width="5.375" height="5.7423"/>
  <polyline class="cls-1" points="50.679 43.44 50.679 36.064 62.862 36.064 62.862 43.44"/>
  <line class="cls-1" x1="32.059" y1="36.7717" x2="43.02071" y2="28.3572"/>
  <line class="cls-2" x1="27.9958" y1="30.9831" x2="40.0712" y2="24.3844"/>
  <path class="cls-2" d="M28.9633,36.2579a2.3325,2.3325,0,1,1-2.3327-2.3327A2.3327,2.3327,0,0,1,28.9633,36.2579Z"/>
  <path class="cls-2" d="M47.8522,23.4979a2.3326,2.3326,0,1,1-2.3327-2.3329A2.3327,2.3327,0,0,1,47.8522,23.4979Z"/>
  <path class="cls-1" d="M32.0844,36.2579a5.4539,5.4539,0,1,1-5.4538-5.454A5.45416,5.45416,0,0,1,32.0844,36.2579Z"/>
  <line class="cls-1" x1="45.298" y1="28.9493" x2="55.6744" y2="36.0643"/>
  <line class="cls-2" x1="50.8491" y1="24.5668" x2="60.49971" y2="36.0643"/>
  <path class="cls-1" d="M44.8752,28.9305a5.45384,5.45384,0,1,1,6.05251-4.781A5.454,5.454,0,0,1,44.8752,28.9305Z"/>
  <line class="cls-1" x1="31.8242" y1="53.8769" x2="24.3908" y2="41.2268"/>
  <line class="cls-1" x1="46.2873" y1="52.0903" x2="32.059" y2="36.7717"/>
  <path class="cls-2" d="M42.1618,56.2099a2.3325,2.3325,0,1,1-2.3327-2.333A2.33233,2.33233,0,0,1,42.1618,56.2099Z"/>
  <path class="cls-1" d="M18.5,61.5V57.4171H31.0346a8.57649,8.57649,0,0,1,17.1526,0H61.5V61.5"/>
</svg>
